<?xml version="1.0" encoding="utf-8"?>
<!-- Generator: Adobe Illustrator 24.3.0, SVG Export Plug-In . SVG Version: 6.00 Build 0)  -->
<svg version="1.1" id="Слой_1" xmlns="http://www.w3.org/2000/svg" xmlns:xlink="http://www.w3.org/1999/xlink" x="0px" y="0px"
	 viewBox="0 0 100 100" style="enable-background:new 0 0 100 100;" xml:space="preserve">
<style type="text/css">
	.st0{display:none;}
	.st1{display:inline;}
	.st2{fill:#A3B0FF;}
</style>
<g id="Layer_1" class="st0">
	<path class="st1" d="M94.5,49.65c0-7.82-5.02-14.45-12.01-16.89C78,19.13,65.15,9.27,50.04,9.27c-15.1,0-27.94,9.85-32.44,23.46
		C10.56,35.14,5.5,41.8,5.5,49.65c0,9.89,8.02,17.91,17.91,17.91V34.88c3.62-11.25,14.19-19.42,26.63-19.42
		c12.36,0,22.86,8.05,26.56,19.19v30.69c-1.28,2.69-8.78,17.57-18.7,18.04c-0.77-2.09-2.76-3.6-5.12-3.6
		c-3.02,0-5.48,2.45-5.48,5.48c0,3.02,2.45,5.48,5.48,5.48c2.38,0,4.38-1.52,5.14-3.64c11.82-0.42,20.03-15.97,21.88-19.84
		C88.15,65.75,94.5,58.45,94.5,49.65z"/>
</g>
<g id="Layer_2" class="st0">
	<path class="st1" d="M63.31,12.4V8.73c0-1.23-1.21-2.23-2.72-2.23c-1.5,0-2.72,1-2.72,2.23v1.9c-0.76-0.11-1.51-0.23-2.3-0.23
		H44.42c-9.24,0-16.72,7.57-16.72,16.9V76.6c0,9.33,7.49,16.9,16.72,16.9h11.15c9.24,0,16.73-7.57,16.73-16.9V27.3
		C72.3,20.8,68.63,15.23,63.31,12.4z M56.63,84.86H43.26v-4.18h13.36V84.86z M65.23,67.35c-0.19,0.22-4.7,5.39-15.36,5.39
		c-10.5,0-16.43-4.98-16.68-5.19c-0.74-0.64-0.83-1.76-0.19-2.51c0.65-0.75,1.77-0.84,2.52-0.21c0.05,0.04,5.25,4.33,14.35,4.33
		c8.89,0,12.5-3.97,12.65-4.14c0.64-0.74,1.77-0.82,2.51-0.18C65.77,65.49,65.86,66.6,65.23,67.35z M66.37,51.59
		c0,3.08-2.39,5.57-5.35,5.57H39.15c-2.96,0-5.34-2.49-5.34-5.57V26.55c0-3.08,2.39-5.57,5.34-5.57h21.88
		c2.96,0,5.35,2.49,5.35,5.57L66.37,51.59L66.37,51.59z"/>
</g>
<g id="Layer_3">
	<path class="st2" d="M63.38,9.69H36.62c-5.41,0-9.79,4.46-9.79,9.97v60.69c0,5.5,4.38,9.97,9.79,9.97h26.75
		c5.41,0,9.8-4.46,9.8-9.97V19.66C73.17,14.15,68.79,9.69,63.38,9.69z M50,85.04c-2.64,0-4.77-2.13-4.77-4.77s2.13-4.76,4.77-4.76
		c2.63,0,4.76,2.13,4.76,4.76S52.63,85.04,50,85.04z M67.13,71.52H32.87V20.77h34.26C67.13,20.77,67.13,71.52,67.13,71.52z"/>
</g>
</svg>
