<?xml version="1.0" encoding="utf-8"?>
<!-- Generator: Adobe Illustrator 24.3.0, SVG Export Plug-In . SVG Version: 6.00 Build 0)  -->
<svg version="1.1" id="Слой_1" xmlns="http://www.w3.org/2000/svg" xmlns:xlink="http://www.w3.org/1999/xlink" x="0px" y="0px"
	 viewBox="0 0 50 50" style="enable-background:new 0 0 50 50;" xml:space="preserve">
<style type="text/css">
	.st0{fill:#a3b0e4;}
</style>
<path class="st0" d="M23.5,0C11.09,0,1,10.09,1,22.5S11.09,45,23.5,45c2.59,0,4.44-0.3,6.06-0.56C30.98,44.22,32.31,44,34,44
	c8.17,0,13.2,5.6,13.25,5.66C47.44,49.88,47.72,50,48,50c0.19,0,0.37-0.05,0.54-0.16c0.42-0.27,0.57-0.8,0.37-1.25
	c-0.11-0.25-2.83-6.11-13.72-8.63l-0.3-0.08c-2.69-0.67-4.87-1.75-6.46-3.22c-2.06-1.9-2.45-3.82-2.45-3.83
	c-0.09-0.51-0.57-0.86-1.07-0.82C24.39,32.05,24,32.48,24,33c0,0.1,0.01,2.09,0.35,3.97C24.06,36.99,23.77,37,23.5,37
	C15.51,37,9,30.49,9,22.5S15.51,8,23.5,8S38,14.5,38,22.5c0,0.6-0.04,1.2-0.11,1.8C36,24,34.12,24,34,24c-0.58,0-1,0.5-1,1.02
	c0.01,0.54,0.46,0.98,1,0.98c0.02,0,2.1,0.02,3.96,1.22c3.09,1.98,3.83,4.98,3.83,5.01c0.09,0.41,0.44,0.72,0.86,0.77
	c0.42,0.04,0.83-0.17,1.01-0.55C45.21,29.31,46,25.96,46,22.5C46,10.09,35.91,0,23.5,0z M38.63,32c-0.25-0.01-0.44,0.09-0.54,0.28
	c-0.21,0.37-0.05,1.11,0.37,1.75c0.43,0.65,0.8,0.98,1.09,0.98c0.27,0,0.54-0.34,0.41-1.15c-0.08-0.48-0.36-1.54-1.07-1.79
	C38.8,32.03,38.72,32.01,38.63,32z M35.37,35c-0.45,0-0.82,0.12-1.05,0.34c-0.59,0.58-0.32,1.59,0.58,2.22
	c0.4,0.27,0.96,0.44,1.52,0.44c0.57,0,1.04-0.17,1.33-0.48c0.53-0.56,0.22-1.35-0.77-2.02C36.48,35.17,35.91,35,35.37,35z"/>
</svg>
